<svg xmlns="http://www.w3.org/2000/svg" viewBox="0 0 1600 1000" role="img" aria-label="Hotel Beach Pet">
  <defs>
    <linearGradient id="sky" x1="0" y1="0" x2="0" y2="1">
      <stop offset="0" stop-color="#9ee4dc"/>
      <stop offset="0.55" stop-color="#f7fbf9"/>
      <stop offset="1" stop-color="#ffe0c8"/>
    </linearGradient>
    <linearGradient id="sea" x1="0" y1="0" x2="1" y2="1">
      <stop offset="0" stop-color="#55c7c2"/>
      <stop offset="1" stop-color="#2d9fb3"/>
    </linearGradient>
    <linearGradient id="floor" x1="0" y1="0" x2="1" y2="1">
      <stop offset="0" stop-color="#fff4df"/>
      <stop offset="1" stop-color="#f7cda6"/>
    </linearGradient>
  </defs>
  <rect width="1600" height="1000" fill="url(#sky)"/>
  <path d="M0 430 C220 355 390 500 620 420 C845 342 1030 435 1225 380 C1370 338 1490 350 1600 390 L1600 1000 L0 1000 Z" fill="url(#sea)" opacity=".95"/>
  <path d="M0 650 C280 590 440 700 720 620 C980 548 1230 650 1600 580 L1600 1000 L0 1000 Z" fill="url(#floor)"/>
  <rect x="190" y="220" width="830" height="530" rx="26" fill="#ffffff" opacity=".92"/>
  <rect x="250" y="310" width="710" height="380" rx="22" fill="#f5fbf8"/>
  <path d="M315 690 L315 405 C315 365 348 332 388 332 L820 332 C860 332 893 365 893 405 L893 690 Z" fill="#8bd8cc"/>
  <path d="M385 690 L385 452 C385 428 405 408 429 408 L779 408 C803 408 823 428 823 452 L823 690 Z" fill="#ffffff"/>
  <rect x="445" y="470" width="110" height="120" rx="16" fill="#f47f6b"/>
  <rect x="655" y="470" width="110" height="120" rx="16" fill="#f47f6b"/>
  <path d="M410 335 L604 190 L798 335 Z" fill="#f4b85a"/>
  <circle cx="604" cy="306" r="44" fill="#ffffff"/>
  <circle cx="590" cy="300" r="9" fill="#1f9e93"/>
  <circle cx="618" cy="300" r="9" fill="#1f9e93"/>
  <path d="M590 322 Q604 336 620 322" fill="none" stroke="#1f9e93" stroke-width="8" stroke-linecap="round"/>
  <g transform="translate(1030 585)">
    <ellipse cx="160" cy="160" rx="180" ry="55" fill="#2b6b72" opacity=".16"/>
    <path d="M78 100 C70 38 117 0 170 18 C218 34 244 82 230 140 C214 206 99 197 78 100Z" fill="#f6c56f"/>
    <circle cx="134" cy="68" r="12" fill="#273236"/>
    <circle cx="198" cy="73" r="12" fill="#273236"/>
    <path d="M160 92 Q177 108 195 92" fill="none" stroke="#273236" stroke-width="9" stroke-linecap="round"/>
    <path d="M99 22 C70 -20 32 25 69 65Z" fill="#db8a57"/>
    <path d="M224 36 C272 7 283 68 238 82Z" fill="#db8a57"/>
    <path d="M105 153 C62 187 47 235 74 250 C115 273 165 218 187 181Z" fill="#f6c56f"/>
    <path d="M219 143 C282 166 315 217 292 243 C261 278 201 226 183 181Z" fill="#f6c56f"/>
  </g>
  <g transform="translate(230 710)">
    <ellipse cx="150" cy="108" rx="160" ry="42" fill="#2b6b72" opacity=".13"/>
    <path d="M72 82 C58 28 95 -10 145 4 C185 16 214 51 210 99 C205 164 88 156 72 82Z" fill="#ffffff"/>
    <path d="M86 14 C60 -18 28 18 57 52Z" fill="#79513d"/>
    <path d="M190 22 C228 3 232 50 202 63Z" fill="#79513d"/>
    <circle cx="118" cy="56" r="10" fill="#273236"/>
    <circle cx="174" cy="58" r="10" fill="#273236"/>
    <path d="M132 80 Q149 93 168 80" fill="none" stroke="#273236" stroke-width="8" stroke-linecap="round"/>
    <rect x="102" y="126" width="90" height="80" rx="35" fill="#ffffff"/>
  </g>
  <circle cx="1285" cy="162" r="74" fill="#ffd36d" opacity=".95"/>
  <path d="M1145 232 C1236 267 1368 266 1468 224" fill="none" stroke="#ffffff" stroke-width="14" stroke-linecap="round" opacity=".72"/>
  <path d="M1174 280 C1270 316 1374 313 1500 269" fill="none" stroke="#ffffff" stroke-width="10" stroke-linecap="round" opacity=".48"/>
</svg>
